<svg width="148" height="38" viewBox="0 0 148 38" fill="none" xmlns="http://www.w3.org/2000/svg">
<g clip-path="url(#clip0_319_133)">
<g clip-path="url(#clip1_319_133)">
<path d="M19.3671 0L30 0V20.3636L0 24V0L11.0127 0L12.9114 6.94737L19.3671 0Z" fill="white"/>
<path d="M10.6329 38H0L0 26.9474L30 24L30 38L18.9873 38L17.0886 34.8006L10.6329 38Z" fill="white"/>
</g>
<path d="M42.225 28V15.075H37.1V10.5H53.25V15.075H48.125V28H42.225ZM59.7941 28L52.3941 10.5H58.7441L64.7691 25.275H60.9941L67.1941 10.5H72.9941L65.5941 28H59.7941ZM78.4053 28.25C77.2219 28.25 76.1219 27.9667 75.1053 27.4C74.1053 26.8167 73.3053 26 72.7053 24.95C72.1053 23.8833 71.8053 22.6167 71.8053 21.15C71.8053 19.6833 72.1053 18.425 72.7053 17.375C73.3053 16.3083 74.1053 15.4917 75.1053 14.925C76.1219 14.3583 77.2219 14.075 78.4053 14.075C79.6053 14.075 80.5886 14.3333 81.3553 14.85C82.1219 15.35 82.6886 16.125 83.0553 17.175C83.4219 18.2083 83.6053 19.5333 83.6053 21.15C83.6053 22.7833 83.4303 24.125 83.0803 25.175C82.7469 26.225 82.1969 27 81.4303 27.5C80.6803 28 79.6719 28.25 78.4053 28.25ZM79.7553 23.85C80.1719 23.85 80.5469 23.75 80.8803 23.55C81.2136 23.35 81.4803 23.05 81.6803 22.65C81.8803 22.2333 81.9803 21.7333 81.9803 21.15C81.9803 20.55 81.8803 20.0583 81.6803 19.675C81.4803 19.275 81.2136 18.975 80.8803 18.775C80.5469 18.575 80.1719 18.475 79.7553 18.475C79.3386 18.475 78.9636 18.575 78.6303 18.775C78.2969 18.975 78.0303 19.275 77.8303 19.675C77.6303 20.0583 77.5303 20.55 77.5303 21.15C77.5303 21.7333 77.6303 22.2333 77.8303 22.65C78.0303 23.05 78.2969 23.35 78.6303 23.55C78.9636 23.75 79.3386 23.85 79.7553 23.85ZM82.1553 28V26.15L82.1303 21.15L81.8803 16.15V9.45H87.5303V28H82.1553ZM97.2572 28.25C95.7072 28.25 94.3322 27.95 93.1322 27.35C91.9489 26.7333 91.0156 25.8917 90.3322 24.825C89.6489 23.7583 89.3072 22.5333 89.3072 21.15C89.3072 19.7667 89.6489 18.5417 90.3322 17.475C91.0156 16.4083 91.9489 15.575 93.1322 14.975C94.3322 14.375 95.7072 14.075 97.2572 14.075C98.8072 14.075 100.182 14.375 101.382 14.975C102.582 15.575 103.516 16.4083 104.182 17.475C104.866 18.5417 105.207 19.7667 105.207 21.15C105.207 22.5333 104.866 23.7583 104.182 24.825C103.516 25.8917 102.582 26.7333 101.382 27.35C100.182 27.95 98.8072 28.25 97.2572 28.25ZM97.2572 23.85C97.6739 23.85 98.0489 23.75 98.3822 23.55C98.7156 23.35 98.9822 23.05 99.1822 22.65C99.3822 22.2333 99.4822 21.7333 99.4822 21.15C99.4822 20.55 99.3822 20.0583 99.1822 19.675C98.9822 19.275 98.7156 18.975 98.3822 18.775C98.0489 18.575 97.6739 18.475 97.2572 18.475C96.8406 18.475 96.4656 18.575 96.1322 18.775C95.7989 18.975 95.5322 19.275 95.3322 19.675C95.1322 20.0583 95.0322 20.55 95.0322 21.15C95.0322 21.7333 95.1322 22.2333 95.3322 22.65C95.5322 23.05 95.7989 23.35 96.1322 23.55C96.4656 23.75 96.8406 23.85 97.2572 23.85ZM125.076 14.075C126.109 14.075 127.034 14.2917 127.851 14.725C128.684 15.1417 129.334 15.8 129.801 16.7C130.284 17.6 130.526 18.7667 130.526 20.2V28H124.876V21.175C124.876 20.325 124.734 19.725 124.451 19.375C124.167 19.0083 123.801 18.825 123.351 18.825C123.017 18.825 122.717 18.9083 122.451 19.075C122.184 19.2417 121.967 19.5083 121.801 19.875C121.651 20.225 121.576 20.7083 121.576 21.325V28H115.926V21.175C115.926 20.325 115.792 19.725 115.526 19.375C115.259 19.0083 114.884 18.825 114.401 18.825C114.067 18.825 113.767 18.9083 113.501 19.075C113.234 19.2417 113.017 19.5083 112.851 19.875C112.701 20.225 112.626 20.7083 112.626 21.325V28H106.976V14.325H112.351V18.25L111.251 17.15C111.767 16.1167 112.459 15.35 113.326 14.85C114.192 14.3333 115.159 14.075 116.226 14.075C117.426 14.075 118.484 14.3917 119.401 15.025C120.334 15.6417 120.959 16.625 121.276 17.975L119.551 17.7C120.051 16.5667 120.776 15.6833 121.726 15.05C122.692 14.4 123.809 14.075 125.076 14.075ZM141.252 28V25.575L140.852 24.925V20.325C140.852 19.6583 140.643 19.15 140.227 18.8C139.827 18.45 139.168 18.275 138.252 18.275C137.635 18.275 137.01 18.375 136.377 18.575C135.743 18.7583 135.202 19.0167 134.752 19.35L132.952 15.625C133.752 15.125 134.71 14.7417 135.827 14.475C136.943 14.2083 138.035 14.075 139.102 14.075C141.452 14.075 143.268 14.6 144.552 15.65C145.852 16.7 146.502 18.3667 146.502 20.65V28H141.252ZM137.377 28.25C136.26 28.25 135.327 28.0583 134.577 27.675C133.827 27.2917 133.26 26.7833 132.877 26.15C132.493 25.5 132.302 24.7833 132.302 24C132.302 23.1167 132.527 22.3667 132.977 21.75C133.427 21.1333 134.11 20.6667 135.027 20.35C135.96 20.0333 137.135 19.875 138.552 19.875H141.402V22.6H139.452C138.852 22.6 138.41 22.7 138.127 22.9C137.86 23.0833 137.727 23.3667 137.727 23.75C137.727 24.0667 137.843 24.3333 138.077 24.55C138.327 24.75 138.66 24.85 139.077 24.85C139.46 24.85 139.81 24.75 140.127 24.55C140.46 24.3333 140.702 24 140.852 23.55L141.577 25.225C141.36 26.2417 140.902 27 140.202 27.5C139.502 28 138.56 28.25 137.377 28.25Z" fill="white"/>
</g>
<defs>
<clipPath id="clip0_319_133">
<rect width="148" height="38" fill="white"/>
</clipPath>
<clipPath id="clip1_319_133">
<rect width="38" height="30" fill="white" transform="matrix(0 1 -1 0 30 0)"/>
</clipPath>
</defs>
</svg>
