<svg width="172" height="38" viewBox="0 0 172 38" fill="none" xmlns="http://www.w3.org/2000/svg">
<g clip-path="url(#clip0_298_516)">
<g clip-path="url(#clip1_298_516)">
<path d="M19.3671 0L30 0V20.3636L0 24V0L11.0127 0L12.9114 6.94737L19.3671 0Z" fill="white"/>
<path d="M10.6329 38H0L0 26.9474L30 24L30 38L18.9873 38L17.0886 34.8006L10.6329 38Z" fill="white"/>
</g>
<path d="M45.475 28.25C43.925 28.25 42.55 27.95 41.35 27.35C40.1667 26.7333 39.2333 25.8917 38.55 24.825C37.8667 23.7583 37.525 22.5333 37.525 21.15C37.525 19.7667 37.8667 18.5417 38.55 17.475C39.2333 16.4083 40.1667 15.575 41.35 14.975C42.55 14.375 43.925 14.075 45.475 14.075C47.025 14.075 48.4 14.375 49.6 14.975C50.8 15.575 51.7333 16.4083 52.4 17.475C53.0833 18.5417 53.425 19.7667 53.425 21.15C53.425 22.5333 53.0833 23.7583 52.4 24.825C51.7333 25.8917 50.8 26.7333 49.6 27.35C48.4 27.95 47.025 28.25 45.475 28.25ZM45.475 23.85C45.8917 23.85 46.2667 23.75 46.6 23.55C46.9333 23.35 47.2 23.05 47.4 22.65C47.6 22.2333 47.7 21.7333 47.7 21.15C47.7 20.55 47.6 20.0583 47.4 19.675C47.2 19.275 46.9333 18.975 46.6 18.775C46.2667 18.575 45.8917 18.475 45.475 18.475C45.0583 18.475 44.6833 18.575 44.35 18.775C44.0167 18.975 43.75 19.275 43.55 19.675C43.35 20.0583 43.25 20.55 43.25 21.15C43.25 21.7333 43.35 22.2333 43.55 22.65C43.75 23.05 44.0167 23.35 44.35 23.55C44.6833 23.75 45.0583 23.85 45.475 23.85ZM59.9184 25.75L60.0434 19.1L64.7684 14.325H71.4434L65.1934 20.875L62.3684 23.15L59.9184 25.75ZM55.1934 28V9.45H60.8434V28H55.1934ZM65.0684 28L61.3184 23.25L64.7934 18.975L71.8934 28H65.0684ZM91.1156 14.075C92.149 14.075 93.074 14.2917 93.8906 14.725C94.724 15.1417 95.374 15.8 95.8406 16.7C96.324 17.6 96.5656 18.7667 96.5656 20.2V28H90.9156V21.175C90.9156 20.325 90.774 19.725 90.4906 19.375C90.2073 19.0083 89.8406 18.825 89.3906 18.825C89.0573 18.825 88.7573 18.9083 88.4906 19.075C88.224 19.2417 88.0073 19.5083 87.8406 19.875C87.6906 20.225 87.6156 20.7083 87.6156 21.325V28H81.9656V21.175C81.9656 20.325 81.8323 19.725 81.5656 19.375C81.299 19.0083 80.924 18.825 80.4406 18.825C80.1073 18.825 79.8073 18.9083 79.5406 19.075C79.274 19.2417 79.0573 19.5083 78.8906 19.875C78.7406 20.225 78.6656 20.7083 78.6656 21.325V28H73.0156V14.325H78.3906V18.25L77.2906 17.15C77.8073 16.1167 78.499 15.35 79.3656 14.85C80.2323 14.3333 81.199 14.075 82.2656 14.075C83.4656 14.075 84.524 14.3917 85.4406 15.025C86.374 15.6417 86.999 16.625 87.3156 17.975L85.5906 17.7C86.0906 16.5667 86.8156 15.6833 87.7656 15.05C88.7323 14.4 89.849 14.075 91.1156 14.075ZM106.486 28.25C104.936 28.25 103.561 27.95 102.361 27.35C101.177 26.7333 100.244 25.8917 99.5607 24.825C98.8774 23.7583 98.5357 22.5333 98.5357 21.15C98.5357 19.7667 98.8774 18.5417 99.5607 17.475C100.244 16.4083 101.177 15.575 102.361 14.975C103.561 14.375 104.936 14.075 106.486 14.075C108.036 14.075 109.411 14.375 110.611 14.975C111.811 15.575 112.744 16.4083 113.411 17.475C114.094 18.5417 114.436 19.7667 114.436 21.15C114.436 22.5333 114.094 23.7583 113.411 24.825C112.744 25.8917 111.811 26.7333 110.611 27.35C109.411 27.95 108.036 28.25 106.486 28.25ZM106.486 23.85C106.902 23.85 107.277 23.75 107.611 23.55C107.944 23.35 108.211 23.05 108.411 22.65C108.611 22.2333 108.711 21.7333 108.711 21.15C108.711 20.55 108.611 20.0583 108.411 19.675C108.211 19.275 107.944 18.975 107.611 18.775C107.277 18.575 106.902 18.475 106.486 18.475C106.069 18.475 105.694 18.575 105.361 18.775C105.027 18.975 104.761 19.275 104.561 19.675C104.361 20.0583 104.261 20.55 104.261 21.15C104.261 21.7333 104.361 22.2333 104.561 22.65C104.761 23.05 105.027 23.35 105.361 23.55C105.694 23.75 106.069 23.85 106.486 23.85ZM123.429 28.25C121.879 28.25 120.504 27.95 119.304 27.35C118.121 26.7333 117.187 25.8917 116.504 24.825C115.821 23.7583 115.479 22.5333 115.479 21.15C115.479 19.7667 115.821 18.5417 116.504 17.475C117.187 16.4083 118.121 15.575 119.304 14.975C120.504 14.375 121.879 14.075 123.429 14.075C124.979 14.075 126.354 14.375 127.554 14.975C128.754 15.575 129.687 16.4083 130.354 17.475C131.037 18.5417 131.379 19.7667 131.379 21.15C131.379 22.5333 131.037 23.7583 130.354 24.825C129.687 25.8917 128.754 26.7333 127.554 27.35C126.354 27.95 124.979 28.25 123.429 28.25ZM123.429 23.85C123.846 23.85 124.221 23.75 124.554 23.55C124.887 23.35 125.154 23.05 125.354 22.65C125.554 22.2333 125.654 21.7333 125.654 21.15C125.654 20.55 125.554 20.0583 125.354 19.675C125.154 19.275 124.887 18.975 124.554 18.775C124.221 18.575 123.846 18.475 123.429 18.475C123.012 18.475 122.637 18.575 122.304 18.775C121.971 18.975 121.704 19.275 121.504 19.675C121.304 20.0583 121.204 20.55 121.204 21.15C121.204 21.7333 121.304 22.2333 121.504 22.65C121.704 23.05 121.971 23.35 122.304 23.55C122.637 23.75 123.012 23.85 123.429 23.85ZM136.656 28L131.156 14.325H136.956L141.131 25.425H138.206L142.656 14.325H148.006L142.506 28H136.656ZM148.87 28V14.325H154.52V28H148.87ZM151.695 13.225C150.662 13.225 149.837 12.95 149.22 12.4C148.603 11.85 148.295 11.1667 148.295 10.35C148.295 9.53333 148.603 8.85 149.22 8.3C149.837 7.75 150.662 7.475 151.695 7.475C152.728 7.475 153.553 7.73333 154.17 8.25C154.787 8.76667 155.095 9.43333 155.095 10.25C155.095 11.1167 154.787 11.8333 154.17 12.4C153.553 12.95 152.728 13.225 151.695 13.225ZM164.574 28.25C162.908 28.25 161.449 27.9417 160.199 27.325C158.966 26.7083 158.008 25.8667 157.324 24.8C156.641 23.7167 156.299 22.5 156.299 21.15C156.299 19.7667 156.633 18.5417 157.299 17.475C157.983 16.4083 158.908 15.575 160.074 14.975C161.258 14.375 162.583 14.075 164.049 14.075C165.399 14.075 166.641 14.3417 167.774 14.875C168.924 15.4083 169.841 16.2 170.524 17.25C171.224 18.3 171.574 19.6 171.574 21.15C171.574 21.35 171.566 21.575 171.549 21.825C171.533 22.0583 171.516 22.275 171.499 22.475H160.974V19.75H168.499L166.374 20.475C166.374 19.9417 166.274 19.4917 166.074 19.125C165.891 18.7417 165.633 18.45 165.299 18.25C164.966 18.0333 164.566 17.925 164.099 17.925C163.633 17.925 163.224 18.0333 162.874 18.25C162.541 18.45 162.283 18.7417 162.099 19.125C161.916 19.4917 161.824 19.9417 161.824 20.475V21.325C161.824 21.9083 161.941 22.4083 162.174 22.825C162.408 23.2417 162.741 23.5583 163.174 23.775C163.608 23.975 164.133 24.075 164.749 24.075C165.383 24.075 165.899 23.9917 166.299 23.825C166.716 23.6583 167.149 23.4083 167.599 23.075L170.549 26.05C169.883 26.7667 169.058 27.3167 168.074 27.7C167.108 28.0667 165.941 28.25 164.574 28.25Z" fill="white"/>
</g>
<defs>
<clipPath id="clip0_298_516">
<rect width="172" height="38" fill="white"/>
</clipPath>
<clipPath id="clip1_298_516">
<rect width="38" height="30" fill="white" transform="matrix(0 1 -1 0 30 0)"/>
</clipPath>
</defs>
</svg>
